{"scene":0,"asset":{"generator":"FabConvert.com","version":"2.0"},"scenes":[{"name":"Scene","nodes":[0]}],"nodes":[{"name":"Node0","children":[1]},{"name":"Node1","mesh":0}],"materials":[{"name":"x1","pbrMetallicRoughness":{"baseColorFactor":[0.85,0.85,0.85,1.0],"metallicFactor":0.05,"roughnessFactor":0.5},"doubleSided":true}],"meshes":[{"name":"Mesh0","primitives":[{"indices":3,"material":0,"attributes":{"POSITION":0,"NORMAL":1,"TEXCOORD_0":2}}]}],"accessors":[{"bufferView":0,"componentType":5126,"count":413,"type":"VEC3","min":[-298.6244,-78.146835,-411.24414],"max":[158.76569,237.73373,78.07007]},{"bufferView":1,"componentType":5126,"count":413,"type":"VEC3"},{"bufferView":2,"componentType":5126,"count":413,"type":"VEC2"},{"bufferView":3,"componentType":5123,"count":4608,"type":"SCALAR"}],"bufferViews":[{"target":34962,"buffer":0,"byteLength":4956,"byteOffset":0},{"target":34962,"buffer":0,"byteLength":4956,"byteOffset":4956},{"target":34962,"buffer":0,"byteLength":3304,"byteOffset":9912},{"target":34963,"buffer":0,"byteLength":9216,"byteOffset":13216}],"buffers":[{"byteLength":22432,"uri":"data:application/octet-stream;base64,"}]}